<svg width="26" height="26" xmlns="http://www.w3.org/2000/svg">

 <g>
  <title>background</title>
  <rect fill="none" id="canvas_background" height="402" width="582" y="-1" x="-1"/>
 </g>
 <g>
  <title>Layer 1</title>
  <path id="svg_2" fill="#00bbb4" d="m25.021444,7.859512c0.00049,-0.01099 0.00629,-0.0202 0.00629,-0.03125c0,-0.03613 -0.01562,-0.06714 -0.02057,-0.10193c-0.00732,-0.05231 -0.01276,-0.10309 -0.03082,-0.15265c-0.01685,-0.04602 -0.04242,-0.08484 -0.06751,-0.12616c-0.02459,-0.04095 -0.04669,-0.08142 -0.07916,-0.11743c-0.03546,-0.03931 -0.078,-0.06793 -0.12097,-0.09906c-0.02838,-0.02063 -0.04846,-0.04889 -0.08038,-0.06586l-11.25,-5.95508c-0.02173,-0.01141 -0.04554,-0.0108 -0.06775,-0.01989c-0.04688,-0.01935 -0.09314,-0.03229 -0.14295,-0.04193c-0.04742,-0.00904 -0.09271,-0.01526 -0.1402,-0.01508c-0.04736,-0.00018 -0.09252,0.00598 -0.13983,0.01501c-0.05023,0.00965 -0.09692,0.02277 -0.1441,0.04236c-0.02179,0.00897 -0.04511,0.00836 -0.06635,0.01953l-11.25,5.95508c-0.03192,0.01697 -0.052,0.04523 -0.08038,0.06586c-0.04297,0.03113 -0.08551,0.05975 -0.12097,0.09906c-0.03247,0.03601 -0.05457,0.07648 -0.07916,0.11743c-0.02509,0.04132 -0.05066,0.08014 -0.06751,0.12616c-0.01806,0.04956 -0.0235,0.10034 -0.03082,0.15265c-0.00494,0.03479 -0.02057,0.0658 -0.02057,0.10193c0,0.01105 0.0058,0.02026 0.00629,0.03125c0.00201,0.04962 0.01745,0.09698 0.02954,0.14618c0.01227,0.04895 0.02069,0.09784 0.04205,0.14245c0.0047,0.00995 0.00385,0.02088 0.00903,0.0307c0.00953,0.01801 0.02906,0.02485 0.0398,0.04175c0.05316,0.08399 0.11963,0.15351 0.20074,0.21057c0.02704,0.01892 0.04999,0.03821 0.07911,0.05335c0.10418,0.05487 0.21752,0.09375 0.34344,0.09375l22.5,0c0.12592,0 0.23926,-0.03888 0.34344,-0.09375c0.02912,-0.01514 0.05207,-0.03443 0.07911,-0.05335c0.08111,-0.05706 0.14758,-0.12658 0.20074,-0.21057c0.01074,-0.0169 0.03027,-0.02374 0.0398,-0.04175c0.00518,-0.00982 0.00433,-0.02075 0.00903,-0.0307c0.02136,-0.04461 0.02978,-0.0935 0.04205,-0.14245c0.01209,-0.0492 0.02753,-0.09656 0.02954,-0.14618zm-11.99371,-5.13764l8.22992,4.35639l-16.45984,0l8.22992,-4.35639z"/>
  <path id="svg_3" fill="#00bbb4" d="m10.256966,19.507684c0,0.41406 0.33594,0.75 0.75,0.75l3.89062,0c0.41407,0 0.75,-0.33594 0.75,-0.75c0,-0.32056 -0.20331,-0.58948 -0.48633,-0.69672l0,-8.06359c0.28302,-0.10724 0.48633,-0.37616 0.48633,-0.69672c0,-0.41406 -0.33593,-0.75 -0.75,-0.75l-3.89062,0c-0.41406,0 -0.75,0.33594 -0.75,0.75c0,0.32056 0.20331,0.58948 0.48633,0.69672l0,8.06359c-0.28302,0.10724 -0.48633,0.37616 -0.48633,0.69672zm1.98633,-0.75l0,-7.95703l1.41796,0l0,7.95703l-1.41796,0z"/>
  <path id="svg_4" fill="#00bbb4" d="m3.848044,19.583142c0,0.41406 0.33594,0.75 0.75,0.75l3.89063,0c0.41406,0 0.75,-0.33594 0.75,-0.75c0,-0.32056 -0.20331,-0.58948 -0.48633,-0.69672l0,-8.06359c0.28302,-0.10724 0.48633,-0.37616 0.48633,-0.69672c0,-0.41406 -0.33594,-0.75 -0.75,-0.75l-3.89063,0c-0.41406,0 -0.75,0.33594 -0.75,0.75c0,0.32056 0.20331,0.58948 0.48633,0.69672l0,8.06359c-0.28302,0.10724 -0.48633,0.37616 -0.48633,0.69672zm1.98633,-0.75l0,-7.95703l1.41797,0l0,7.95703l-1.41797,0z"/>
  <path id="svg_5" fill="#00bbb4" d="m16.741336,19.507684c0,0.41406 0.33594,0.75 0.75,0.75l3.89063,0c0.41406,0 0.75,-0.33594 0.75,-0.75c0,-0.32056 -0.20331,-0.58948 -0.48633,-0.69672l0,-8.06359c0.28302,-0.10724 0.48633,-0.37616 0.48633,-0.69672c0,-0.41406 -0.33594,-0.75 -0.75,-0.75l-3.89063,0c-0.41406,0 -0.75,0.33594 -0.75,0.75c0,0.32056 0.20331,0.58948 0.48633,0.69672l0,8.06359c-0.28302,0.10724 -0.48633,0.37616 -0.48633,0.69672zm1.98633,-0.75l0,-7.95703l1.41797,0l0,7.95703l-1.41797,0z"/>
  <path id="svg_6" fill="#00bbb4" d="m1.935676,21.894404c0,0.41406 0.33594,0.75 0.75,0.75l20.5332,0c0.41406,0 0.75,-0.33594 0.75,-0.75s-0.33594,-0.75 -0.75,-0.75l-20.5332,0c-0.41406,0 -0.75,0.33594 -0.75,0.75z"/>
  <path id="svg_7" fill="#00bbb4" d="m24.029426,23.5l-22.1543,0c-0.41406,0 -0.75,0.33594 -0.75,0.75s0.33594,0.75 0.75,0.75l22.1543,0c0.41406,0 0.75,-0.33594 0.75,-0.75s-0.33594,-0.75 -0.75,-0.75z"/>
 </g>
</svg>