<svg width="100" height="100" xmlns="http://www.w3.org/2000/svg">

 <title/>
 <g>
  <title>background</title>
  <rect fill="none" id="canvas_background" height="402" width="582" y="-1" x="-1"/>
 </g>
 <g>
  <title>Layer 1</title>
  <path fill="none" id="svg_2" d="m41.8,84c0.1,0.2 0.1,0.3 0.1,0.5c0,3.3 0.2,6.7 0.5,10c2.6,-0.1 4.9,-0.1 7.2,-0.2l0,0c0.3,0 0.7,0 1,0c-0.3,-5 -0.4,-10 -0.5,-15c-1.7,1.1 -4.6,2.8 -8.3,4.7z" class="st0"/>
  <path fill="none" id="svg_3" d="m16.3,94c-0.2,0.1 -0.4,0.1 -0.5,0.2c1.7,0.1 4.3,0.2 7.7,0.3c1.4,0 2.7,0.1 4,0.1c-0.1,-1.4 -0.3,-2.8 -0.4,-4.1c-4.5,1.6 -8.3,2.7 -10.8,3.5z" class="st0"/>
  <path fill-opacity="0" fill="#000000" id="svg_4" d="m67.042206,47.215588c3.1,-3.3 6.8,-7.5 10.8,-12.7c0,0 0,0 0,-0.1c0.5,-0.6 1.4,-0.7 2,-0.2c1.7,1.5 3.6,2.9 5.6,4.4c1,0.8 2.1,1.5 3.1,2.2c0.3,0.2 0.6,0.3 1,0.3c0.4,0 0.8,-0.2 1.2,-0.4c0.3,-0.3 0.5,-0.7 0.5,-1.1c0.2,-4.9 0.3,-9.9 0.3,-15l0,-0.7c0,-5.6 -0.1,-11 -0.3,-16.3c0,-0.2 0,-0.3 -0.1,-0.5c-0.3,-1.4 -1.7,-2.3 -3.2,-2c-11.2,2.6 -22.3,5.3 -33.3,8.3c-0.3,0.1 -0.6,0.3 -0.8,0.5c-0.2,0.3 -0.3,0.6 -0.3,0.9c0,0.5 0.3,1 0.7,1.2c0.9,0.6 1.8,1.1 2.7,1.7c2.2,1.3 4.3,2.5 6.3,3.5c0.7,0.4 1,1.2 0.6,1.9c-3.1,6 -6.6,11.7 -10.6,17.1c-8.5,11.4 -18,20 -30,30.8c-6.4,5.7 -11.1,9.7 -13.7,12.2c-0.6,0.6 -1.2,1.2 -1.7,1.8c0.7,-0.1 1.4,-0.2 2.1,-0.4c1.1,-0.3 2.4,-0.7 3.6,-1.1c2.5,-0.9 4.9,-1.9 6.1,-2.4c9.4,-3.8 27.6,-12.8 47.4,-33.9z" class="st0"/>
  <path fill="none" id="svg_5" d="m31.5,88.7c-0.6,0.2 -1.2,0.5 -1.7,0.7c0.2,1.7 0.4,3.5 0.5,5.2c0.7,0 1.3,0 1.9,0c2.6,0 5,0 7.3,-0.1c-0.3,-3.1 -0.4,-6.1 -0.5,-9.2c-2.2,1.2 -4.8,2.3 -7.5,3.4z" class="st0"/>
  <path fill="none" id="svg_6" d="m52.9,77.5c0,0.1 0,0.1 0,0.2c0.1,5.5 0.3,11.1 0.6,16.6c3.4,-0.1 6.9,-0.2 10.4,-0.3c-0.3,-8.1 -0.5,-16.3 -0.8,-24.4c-3.3,2.8 -6.7,5.4 -10.2,7.9z" class="st0"/>
  <path fill="none" id="svg_7" d="m91.626618,55.157794c-0.1,-0.1 -0.1,-0.1 -0.2,-0.1c-0.1,0 -0.2,-0.1 -0.5,-0.2c-0.6,-0.3 -1.6,-0.7 -3.5,-1.6c-1.2,-0.6 -2.3,-1.1 -3.4,-1.6c-0.5,-0.2 -1,-0.4 -1.6,-0.4c-1.1,0 -2.1,0.5 -2.8,1.4l0,0c-0.2,0.3 -0.4,0.5 -0.6,0.8l2.3,40.3l0.6,0c2.2,0 3.9,0 5.2,-0.2c1,-0.1 1.9,-0.3 2.8,-0.7c0.5,-0.2 0.9,-0.5 1.2,-0.9c0.5,-0.4 0.8,-1 1,-1.6c0.2,-0.9 0.3,-1.8 0.3,-2.7c0,-1.7 -0.1,-4.1 -0.1,-7.5c0,-2.1 0.1,-4.7 0.3,-7.7l0,0c0.3,-4.9 0.8,-8.8 0.8,-11.8c0,-1.2 -0.1,-2.4 -0.4,-3.5c-0.4,-0.8 -0.8,-1.5 -1.4,-2z" class="st0"/>
  <path fill="none" id="svg_8" d="m65.8,67.1c0,0.1 0.1,0.3 0.1,0.4c0.3,8.8 0.6,17.6 0.9,26.4c3.2,-0.1 6.4,-0.1 9.6,-0.1l0,0l0.3,0l1.1,0c0,-0.1 0.1,-0.2 0.1,-0.4c-0.7,-12.2 -1.4,-24.5 -2.1,-36.7c-3.1,3.7 -6.5,7.1 -10,10.4z" class="st0"/>
  <path transform="rotate(-178.84812927246094 52.001914978027344,55.87174224853515) " fill="#00bbb4" id="svg_9" d="m23.301915,94.62325c9.6,-3.9 28.3,-13.1 48.4,-34.6c2.9,-3.1 6.3,-7 10.1,-11.8c1.4,1.2 3,2.4 4.6,3.6c1.1,0.8 2.1,1.5 3.2,2.3c1.8,1.2 4.1,1.1 5.7,-0.4c0.9,-0.8 1.4,-2 1.5,-3.2c0.2,-4.9 0.3,-9.9 0.3,-15.1l0,-0.7c0,-5.6 -0.1,-11.1 -0.3,-16.4c-0.1,-3 -2.7,-5.4 -5.7,-5.3c-0.3,0 -0.7,0.1 -1,0.1c-11.4,2.6 -22.6,5.3 -33.7,8.3c-1,0.3 -1.8,0.8 -2.4,1.6c-0.5,0.8 -0.8,1.7 -0.8,2.6c0,1.5 0.8,2.9 2,3.7c0.9,0.6 1.8,1.1 2.8,1.7c1.8,1.1 3.5,2 5.2,2.9c-2.8,5.4 -6.1,10.6 -9.7,15.5c-8.2,11.1 -17.6,19.5 -29.6,30.3c-5.2,4.7 -9.3,8.2 -12.2,10.7c-1.2,1 -2.3,2.1 -3.3,3.3c-0.4,0.4 -0.7,0.8 -1,1.3c-0.3,0.5 -0.5,1 -0.5,1.5c0,0.7 0.3,1.3 0.9,1.7c0.3,0.2 0.6,0.4 1,0.4c0.3,0.1 0.6,0.1 1,0.1c1.1,0 2.3,-0.2 3.4,-0.5c2,-0.5 3.9,-1.2 5.8,-1.9c1.8,-0.7 3.4,-1.4 4.3,-1.7zm-10.9,0.8c-0.7,0.2 -1.4,0.3 -2.1,0.4c0.5,-0.6 1.1,-1.2 1.7,-1.8c2.7,-2.5 7.4,-6.5 13.8,-12.1c12,-10.8 21.6,-19.4 30,-30.8c4,-5.4 7.6,-11.1 10.6,-17.1c0.4,-0.7 0.1,-1.6 -0.6,-1.9c-2.1,-1.1 -4.2,-2.3 -6.3,-3.5c-0.9,-0.6 -1.8,-1.1 -2.7,-1.7c-0.4,-0.3 -0.7,-0.7 -0.7,-1.2c0,-0.3 0.1,-0.6 0.3,-0.9c0.2,-0.3 0.5,-0.5 0.8,-0.5c11,-3.1 22.1,-5.8 33.3,-8.4c1.4,-0.3 2.8,0.6 3.2,2c0,0.2 0,0.4 0,0.5c0.2,5.2 0.3,10.7 0.3,16.3l0,0.7c0,5.2 -0.1,10.2 -0.3,15c0,0.4 -0.2,0.9 -0.5,1.1c-0.3,0.3 -0.7,0.4 -1.2,0.4c-0.3,0 -0.7,-0.1 -1,-0.3c-1,-0.7 -2,-1.4 -3.1,-2.2c-2,-1.5 -3.9,-3 -5.6,-4.4c-0.6,-0.5 -1.5,-0.4 -2,0.2c0,0 0,0 0,0.1c-4,5.2 -7.7,9.5 -10.8,12.7c-19.7,21.1 -38,30.1 -47.4,33.9c-1.2,0.5 -3.6,1.5 -6.1,2.4c-1.2,0.4 -2.5,0.8 -3.6,1.1z"/>
  <line stroke-linejoin="round" stroke-linecap="round" stroke-width="0" stroke="#000000" fill="none" id="svg_10" y2="87.1" y1="87.1" x2="4.5" x1="4.5" class="st1"/>
  <path fill="#00bbb4" transform="rotate(179.9379119873047 51.159114837646484,29.532699584960934) " id="svg_11" d="m93.709115,17.327146c0,-1.5 -0.1,-3 -0.5,-4.4c-0.4,-1.3 -1.2,-2.4 -2.3,-3.3c-0.2,-0.1 -0.4,-0.3 -0.6,-0.4c-0.3,-0.2 -0.6,-0.3 -1.2,-0.6c-0.6,-0.3 -1.5,-0.7 -2.9,-1.3c-1.2,-0.6 -2.3,-1.1 -3.3,-1.6c-2.7,-1.4 -6,-0.6 -7.9,1.8l0,0c-7.8,9.9 -17,18.4 -27.5,25.4c-6,3.8 -12.4,7.1 -19,9.8c-5.3,2.2 -10,3.6 -13.4,4.7c-1.7,0.5 -3.1,1 -4.1,1.4c-0.5,0.2 -0.9,0.4 -1.4,0.7c-0.2,0.2 -0.4,0.4 -0.6,0.6c-0.2,0.3 -0.4,0.7 -0.4,1.1c0,0.1 0,0.2 0,0.2l0,0l0,0c0,0.2 0.1,0.5 0.3,0.7c0.2,0.3 0.5,0.6 0.8,0.7c0.5,0.2 1.1,0.4 1.6,0.5c1.3,0.2 2.5,0.3 3.8,0.4c1.6,0.1 3.7,0.2 6.2,0.2c3.2,0.1 6.2,0.1 8.9,0.1c7,0 12.5,-0.2 17.4,-0.3c8.9,-0.2 17.8,-0.6 26.7,-0.6l0.3,0c1.8,0 3.4,0 4.8,0c2.3,0.1 4.6,0 6.9,-0.4c0.8,-0.1 1.6,-0.4 2.4,-0.8c0.7,-0.4 1.4,-0.8 2,-1.4c0.8,-0.8 1.4,-1.8 1.8,-2.9c0.3,-1.1 0.4,-2.3 0.4,-3.5c0,-1.9 -0.1,-4.2 -0.1,-7.5c0,-2.1 0.1,-4.6 0.2,-7.5c0.2,-4.6 0.7,-8.5 0.7,-11.8zm-72.3,33.8c-3.4,-0.1 -6,-0.2 -7.7,-0.3c0.2,-0.1 0.4,-0.1 0.5,-0.2c2.5,-0.8 6.3,-2 10.7,-3.6c0.1,1.4 0.3,2.8 0.4,4.1c-1.2,0.1 -2.5,0.1 -3.9,0zm8.8,0.1c-0.6,0 -1.3,0 -1.9,0c-0.2,-1.7 -0.4,-3.5 -0.5,-5.2c0.6,-0.2 1.1,-0.4 1.7,-0.7c2.7,-1.1 5.3,-2.3 7.5,-3.4c0.1,3.1 0.2,6.1 0.5,9.2c-2.2,0.1 -4.6,0.1 -7.3,0.1zm17.4,-0.3l0,0c-2.3,0 -4.7,0.1 -7.2,0.2c-0.3,-3.3 -0.5,-6.7 -0.5,-10c0,-0.2 0,-0.3 -0.1,-0.5c3.7,-1.9 6.6,-3.6 8.3,-4.7c0.1,5 0.3,10 0.5,15c-0.3,0 -0.7,0 -1,0zm3.9,-0.1c-0.3,-5.5 -0.5,-11 -0.6,-16.6c0,-0.1 0,-0.1 0,-0.2c3.5,-2.4 6.9,-5.1 10.2,-7.9c0.3,8.1 0.5,16.3 0.8,24.4c-3.5,0.1 -7,0.2 -10.4,0.3zm24.3,-0.4l-1.1,0l-0.3,0l0,0c-3.2,0 -6.4,0.1 -9.6,0.1c-0.3,-8.8 -0.6,-17.6 -0.9,-26.4c0,-0.1 0,-0.3 -0.1,-0.4c3.6,-3.3 6.9,-6.8 10.1,-10.4c0.7,12.2 1.4,24.5 2.1,36.7c-0.1,0.1 -0.2,0.2 -0.2,0.4zm14.2,-21.3l0,0c-0.2,3 -0.2,5.6 -0.2,7.7c0,3.4 0.1,5.8 0.1,7.5c0,0.9 -0.1,1.8 -0.3,2.7c-0.2,0.6 -0.5,1.2 -1,1.6c-0.4,0.4 -0.8,0.7 -1.2,0.9c-0.9,0.4 -1.8,0.6 -2.8,0.7c-1.3,0.1 -3,0.2 -5.2,0.2l-0.6,0l-2.3,-40.3c0.2,-0.3 0.4,-0.5 0.6,-0.8l0,0c0.7,-0.9 1.7,-1.4 2.8,-1.4c0.5,0 1.1,0.1 1.6,0.4c1,0.5 2.1,1.1 3.4,1.6c1.9,0.9 2.9,1.3 3.5,1.6c0.3,0.1 0.4,0.2 0.5,0.2c0.1,0 0.1,0.1 0.2,0.1c0.6,0.5 1.1,1.2 1.3,1.9c0.3,1.1 0.4,2.3 0.4,3.5c0.1,3 -0.5,7 -0.8,11.9z"/>
 </g>
</svg>