<svg width="512" height="512" xmlns="http://www.w3.org/2000/svg">

 <g>
  <title>background</title>
  <rect fill="none" id="canvas_background" height="402" width="582" y="-1" x="-1"/>
 </g>
 <g>
  <title>Layer 1</title>
  <path fill="#00bbb4" id="svg_2" fill-rule="evenodd" clip-rule="evenodd" d="m339.059,144.682c2.351,-0.524 4.291,-1.643 5.77,-3.385c1.494,-1.742 2.235,-3.781 2.235,-6.148c0,-2.07 -0.643,-3.879 -1.892,-5.391c-1.232,-1.546 -3.271,-2.697 -6.113,-3.518l0,18.442zm-6.855,-50.135c-1.843,0.658 -3.288,1.742 -4.373,3.256c-1.067,1.512 -1.593,3.156 -1.593,4.964c0,1.676 0.477,3.188 1.463,4.636c0.969,1.412 2.481,2.564 4.503,3.451l0,-16.307zm0,49.348l0,-19.66c-6.114,-1.776 -10.603,-4.404 -13.444,-7.957c-2.861,-3.582 -4.293,-7.889 -4.293,-12.953c0,-5.16 1.629,-9.467 4.85,-12.951c3.24,-3.519 7.528,-5.524 12.888,-6.049l0,-4.637l6.854,0l0,4.637c5.015,0.592 8.99,2.301 11.967,5.127c2.959,2.795 4.85,6.575 5.672,11.276l-11.95,1.513c-0.741,-3.682 -2.646,-6.181 -5.688,-7.494l0,18.377c7.563,2.004 12.721,4.668 15.451,7.889c2.745,3.256 4.11,7.398 4.11,12.492c0,5.656 -1.709,10.424 -5.181,14.335c-3.449,3.88 -8.232,6.28 -14.381,7.267l0,8.744l-6.854,0l0,-8.68c-5.391,-0.658 -9.781,-2.63 -13.168,-5.983c-3.4,-3.354 -5.538,-8.119 -6.492,-14.234l12.248,-1.448c0.491,2.499 1.446,4.637 2.825,6.477c1.382,1.808 2.908,3.088 4.586,3.912zm51.351,-70.092c-12.262,-12.262 -29.24,-19.857 -47.964,-19.857c-18.741,0 -35.702,7.596 -47.982,19.857c-12.279,12.262 -19.874,29.26 -19.874,47.966c0,18.739 7.595,35.704 19.874,47.997c12.28,12.265 29.241,19.859 47.982,19.859c18.724,0 35.702,-7.595 47.964,-19.859c12.28,-12.293 19.875,-29.258 19.875,-47.997c0,-18.706 -7.595,-35.705 -19.875,-47.966zm-220.235,310.051l0,0l-0.049,-0.101l-0.049,-0.098l-0.197,-0.493l-0.228,-0.526l-0.231,-0.524l-0.263,-0.526l-0.246,-0.561l0,0l-0.25,-0.558l-0.277,-0.591l-0.281,-0.594l-0.294,-0.591l-0.295,-0.625l0,0l-0.298,-0.624l0,0l-0.326,-0.656l0,0l-0.313,-0.658l-0.33,-0.658l-0.344,-0.658l0,0l-0.348,-0.689l0,0l-0.344,-0.689l0,0l-0.361,-0.725l0,0l-0.362,-0.69l0,-0.033l-0.379,-0.689l-0.018,-0.033l-0.361,-0.724l-0.014,0l-0.379,-0.723l0,-0.033l-0.393,-0.723l0,0l-0.414,-0.756l0,-0.034l-0.411,-0.757l0,0l-0.393,-0.756l-0.018,0l-0.411,-0.787l0,0l-0.428,-0.79l0,0l-0.425,-0.821l-0.018,0l-0.428,-0.789l0,0l-0.442,-0.822l0,0l-0.446,-0.789l-0.018,-0.033l-0.442,-0.821l0,0l-0.442,-0.823l-0.018,0l-0.46,-0.821l0,0l-0.459,-0.854l-0.018,0l-0.46,-0.821l0,0l-0.477,-0.856l-0.018,0l-0.46,-0.854l0,0l-0.491,-0.854l0,0l-0.495,-0.854l0,-0.033l-0.492,-0.854l0,0l-0.495,-0.854l0,0l-0.491,-0.854l0,-0.033l-0.495,-0.855l-0.018,0l-0.509,-0.888l0,0l-0.491,-0.854l-0.018,-0.033l-0.87,-1.511l-0.147,-0.231l0,0l-0.513,-0.887l-0.014,0l-0.513,-0.888l0,0l-0.523,-0.854l0,-0.033l-0.526,-0.854l0,-0.034l-0.526,-0.854l0,0l-0.526,-0.889l0,0l-0.526,-0.888l0,0l-0.526,-0.888l-0.018,0l-0.523,-0.887l0,0l-0.544,-0.855l0,-0.031l-0.526,-0.855l0,0l-0.526,-0.888l-0.014,0l-0.544,-0.854l0,-0.033l-0.526,-0.854l0,0l-0.541,-0.854l0,-0.033l-0.446,-0.691l0,0l-0.428,-0.724l0,0l-0.442,-0.689l-0.018,0l-0.428,-0.691l0,-0.031l-0.442,-0.691l0,0l-0.446,-0.69l0,0l-0.424,-0.691l0,-0.031l-0.446,-0.658l-0.014,-0.033l-0.428,-0.658l0,-0.031l-0.428,-0.658l0,0l-0.442,-0.689l-0.018,0l-0.428,-0.691l0,0l-0.428,-0.658l0,0l-0.425,-0.656l-0.018,-0.033l-0.428,-0.658l0,0l-0.44,-0.671l0,0l-0.428,-0.658l0,0l-0.428,-0.657l0,0l-0.428,-0.625l0,-0.033l-0.428,-0.625l0,0l-0.424,-0.622l0,-0.034l-0.428,-0.624l0,0l-0.428,-0.625l0,0l-0.411,-0.625l0,0l-0.411,-0.592l-0.018,0l-0.411,-0.624l0,0l-0.428,-0.593l0,0l-0.393,-0.592l0,-0.033l-0.411,-0.559l-0.018,-0.033l-0.393,-0.558l0,0l-0.41,-0.593l-0.397,-0.559l-0.014,0l-0.397,-0.56l0,0l-0.393,-0.558l0,0l-0.396,-0.561l-0.393,-0.524l0,-0.033l-0.393,-0.526l0,0l-0.379,-0.526l0,0l-0.379,-0.524l-0.393,-0.493l-0.362,-0.493l0,-0.033l-0.379,-0.46l-0.018,0l-0.361,-0.493l-0.361,-0.493l-0.362,-0.462l0,0l-0.361,-0.459l0,0l-0.361,-0.46l-0.362,-0.429l0,0l-0.33,-0.426l-0.362,-0.428l0,0l-0.656,-0.822l-0.656,-0.756l0,-0.033l-0.33,-0.361l0,0l-0.33,-0.361l0,0l-0.919,-1.02l0,0c-0.495,-0.527 -0.986,-1.02 -1.446,-1.479c-4.176,-3.978 -7.563,-5.359 -10.356,-5.458c-2.78,-0.098 -5.391,1.118 -7.626,2.203l-5.131,2.465c-10.321,4.899 -27.286,12.954 -29.652,17.951c-1.909,4.043 -0.098,10.455 1.938,17.72l1.744,6.345c4.141,16.635 4.208,36.032 4.274,54.902c0.063,19.661 0.162,38.826 4.962,52.963c0.558,1.644 0.821,2.235 0.888,2.235c1.12,-0.032 3.387,-1.348 6.345,-3.09c5.506,-3.222 16.635,-8.383 29.293,-14.235c24.819,-11.474 55.787,-25.775 58.223,-31.166c0.853,-1.907 1.049,-4.373 0.625,-7.266c-0.463,-3.254 -1.645,-7.002 -3.421,-11.211zm37.955,-122.923c-12.178,2.435 -27.925,9.042 -43.328,16.57c-13.645,6.642 -27.058,14.071 -37.562,20.087l0,0l0.298,0.33l0.063,0.064l0.526,0.658l0.197,0.229l0.116,0.132l0.246,0.295l0.066,0.066l0.295,0.395l0.018,0l0.607,0.757l0.151,0.196l0.161,0.198l0.214,0.262l0.098,0.132l0.281,0.361l0.049,0.066l0.33,0.426l0.014,0.034l0.313,0.361l0.084,0.132l0.228,0.33l0.165,0.196l0.165,0.229l0.642,0.823l0.032,0.065l0.66,0.887l0.112,0.166l0.231,0.295l0.179,0.263l0.165,0.196l0.249,0.363l0.098,0.13l0.313,0.462l0.032,0l0.33,0.492l0.063,0.065l0.298,0.429l0.13,0.162l0.411,0.594l0.147,0.23l0.281,0.395l0.081,0.098l0.66,0.953l0.049,0.066l0.081,0.099l0.281,0.427l0.147,0.197l0.576,0.822l0.294,0.461l0.067,0.064l0.361,0.561l0,0l0.361,0.524l0.084,0.132l0.295,0.395l0.147,0.23l0.214,0.329l0.228,0.329l0.133,0.195l0.313,0.494l0.049,0.066l0.74,1.117l0.098,0.132l0.277,0.427l0.165,0.263l0.2,0.297l0.26,0.395l0.116,0.163l0.347,0.527l0.032,0.033l0.361,0.591l0.032,0.067l0.348,0.492l0.116,0.197l0.26,0.395l0.2,0.295l0.179,0.297l0.281,0.395l0.098,0.164l0.344,0.559l0.017,0.033l0.393,0.592l0.035,0.098l0.327,0.493l0.133,0.198l0.246,0.394l0.214,0.329l0.165,0.264l0.295,0.46l0.084,0.132l0.375,0.591l0,0l0.379,0.625l0.066,0.099l0.313,0.492l0.147,0.232l0.231,0.361l0.228,0.361l0.147,0.264l0.298,0.492l0.081,0.099l0.379,0.624l0,0l0.491,0.789l0.067,0.1l0.428,0.689l0.099,0.197l0.393,0.624l0.165,0.263l0.33,0.527l0.214,0.361l0.277,0.428l0.264,0.46l0.214,0.361l0.33,0.56l0.165,0.262l0.375,0.625l0.099,0.164l0.463,0.724l0.032,0.101l0.491,0.787l0,0.033l0.495,0.79l0.049,0.099l0.411,0.723l0.133,0.164l0.362,0.625l0.165,0.295l0.312,0.527l0.21,0.361l0.264,0.459l0.263,0.462l0.214,0.328l0.313,0.558l0.526,0.889l0.098,0.164l0.428,0.757l0.049,0.065l0.031,0.033l0.906,1.577l0.049,0.1l0.411,0.69l0.098,0.195l0.362,0.625l0.165,0.264l1.183,2.104l0.312,0.527l0.147,0.263l0.348,0.624l0.098,0.166l0.393,0.689l0.049,0.098l0.856,1.547l0.067,0.098l2.053,3.715l0.281,0.526l0.13,0.229l0.807,1.479l0.393,0.724l0.018,0.033c2.039,3.781 3.896,7.331 5.489,10.553l0.133,0.264l0.295,0.591l0.231,0.493l0.063,0.098l0.562,1.186l0.014,0l0.544,1.117l0.067,0.165l0.196,0.394l0.081,0.197l0.165,0.361l0,0c45.929,-17.094 69.517,-9.502 94.486,-1.445c16.372,5.259 33.399,10.717 58.237,8.875c19.562,-1.445 64.29,-22.486 101.028,-45.861c30.409,-19.396 55.099,-39.91 54.277,-51.088l-0.098,-1.151c-0.772,-5.491 -4.24,-8.712 -8.76,-10.488c-5.146,-2.037 -11.69,-2.333 -17.572,-1.905c-1.499,0.131 -2.977,0.295 -4.359,0.459c-13.641,1.908 -31.806,7.727 -49.196,15.156c-16.785,7.199 -32.747,15.912 -43.198,24.098c-3.323,7.332 -11.129,11.211 -21.208,12.789c-23.967,3.781 -61.708,-6.41 -76.254,-10.323l-3.337,-0.888c-2.151,-0.592 -3.436,-2.794 -2.86,-4.932c0.562,-2.168 2.779,-3.451 4.934,-2.859l3.334,0.888c14.122,3.781 50.729,13.677 72.969,10.158c9.961,-1.577 16.766,-6.115 15.993,-15.879l0,-0.065l0,-0.1l0,0l-0.014,-0.064l0,-0.066l-0.018,-0.099l0,-0.065l-0.018,-0.098l0,-0.066l-0.018,-0.033l0,-0.065l-0.015,-0.067l0,-0.098l-0.018,-0.064l-0.018,-0.101l0,-0.065l0,-0.033l-0.014,-0.064l-0.018,-0.066l0,-0.099l-0.018,-0.065l-0.014,-0.1l0,-0.098l-0.018,-0.032l-0.115,-0.657c-3.303,-16.57 -30.361,-27.748 -60.754,-34.226c-31.364,-6.673 -65.964,-8.152 -82.912,-5.489l-2.216,0.391zm-75.96,119.537c-1.25,-1.02 -2.909,-1.546 -4.632,-1.348c-1.713,0.196 -3.222,1.085 -4.208,2.334c-1.004,1.249 -1.53,2.925 -1.351,4.636c0.2,1.742 1.088,3.223 2.337,4.24c1.25,0.954 2.86,1.48 4.57,1.315l0.063,0c1.744,-0.198 3.239,-1.084 4.243,-2.333c0.968,-1.219 1.495,-2.861 1.33,-4.572l-0.014,-0.064c-0.2,-1.709 -1.088,-3.222 -2.338,-4.208zm92.268,105.531c-2.221,0 -4.029,-1.808 -4.029,-4.043c0,-2.236 1.808,-4.045 4.029,-4.045l197.828,0c2.222,0 4.047,1.809 4.047,4.045c0,2.235 -1.825,4.043 -4.047,4.043l-197.828,0zm218.081,0c-2.235,0 -4.043,-1.808 -4.043,-4.043c0,-2.236 1.808,-4.045 4.043,-4.045l24.722,0c2.235,0 4.046,1.809 4.046,4.045c0,2.235 -1.811,4.043 -4.046,4.043l-24.722,0zm-396.728,-0.69c-2.218,0 -4.043,-1.809 -4.043,-4.044c0,-2.236 1.825,-4.043 4.043,-4.043l93.729,0c2.235,0 4.042,1.807 4.042,4.043c0,2.235 -1.807,4.044 -4.042,4.044l-93.729,0zm286.084,-241.473c2.089,0.756 3.142,3.09 2.369,5.162c-0.775,2.071 -3.092,3.156 -5.18,2.365c-0.229,-0.098 -83.256,-30.836 -110.595,-23.997c-27.975,7.001 -89.914,41.784 -90.079,41.851c-1.972,1.084 -4.404,0.361 -5.489,-1.579c-1.07,-1.939 -0.361,-4.405 1.593,-5.489c0.183,-0.1 62.939,-35.342 92.019,-42.607c29.706,-7.431 115.116,24.196 115.362,24.294zm-227.844,218.919c-2.235,0 -4.046,-1.807 -4.046,-4.043c0,-2.202 1.811,-4.011 4.046,-4.011l238.892,0c2.218,0 4.043,1.809 4.043,4.011c0,2.236 -1.825,4.043 -4.043,4.043l-238.892,0zm299.365,-399.702c-15.4,-15.385 -36.707,-24.921 -60.228,-24.921c-23.524,0 -44.827,9.536 -60.23,24.921c-15.386,15.386 -24.935,36.688 -24.935,60.229c0,23.507 9.549,44.809 24.935,60.229c15.403,15.385 36.706,24.919 60.23,24.919c23.521,0 44.827,-9.534 60.228,-24.919c15.385,-15.42 24.921,-36.722 24.921,-60.229c0,-23.541 -9.536,-44.844 -24.921,-60.229zm-60.228,-37.051c26.845,0 51.155,10.883 68.759,28.504c17.621,17.621 28.521,41.916 28.521,68.775c0,26.826 -10.9,51.154 -28.504,68.742c-17.621,17.621 -41.932,28.535 -68.776,28.535s-51.154,-10.914 -68.762,-28.502c-17.621,-17.621 -28.518,-41.949 -28.518,-68.775c0,-26.859 10.897,-51.154 28.487,-68.775c17.639,-17.621 41.949,-28.504 68.793,-28.504zm-216.518,345.096c3.91,-0.427 7.675,0.756 10.553,3.059c2.86,2.268 4.882,5.688 5.324,9.598l0.018,0.133c0.411,3.879 -0.79,7.594 -3.057,10.454c-2.285,2.86 -5.689,4.866 -9.616,5.325l-0.133,0c-3.878,0.429 -7.595,-0.787 -10.437,-3.057c-2.878,-2.269 -4.882,-5.687 -5.328,-9.6c-0.442,-3.945 0.741,-7.693 3.043,-10.586c2.284,-2.861 5.688,-4.865 9.633,-5.326z"/>
 </g>
</svg>